<?xml version="1.0" encoding="UTF-8" standalone="no"?>
<!-- Generator: Adobe Illustrator 16.0.0, SVG Export Plug-In . SVG Version: 6.00 Build 0)  -->
<!DOCTYPE svg  PUBLIC '-//W3C//DTD SVG 1.1//EN'  'http://www.w3.org/Graphics/SVG/1.1/DTD/svg11.dtd'>
<svg id="primary_logo" xmlns="http://www.w3.org/2000/svg" xml:space="preserve" height="288px" viewBox="0 0 432 288" width="432px" version="1.1" y="0px" x="0px" xmlns:xlink="http://www.w3.org/1999/xlink" enable-background="new 0 0 432 288">
	<path id="element" d="m48.492 73.322v32.943h114.69v-32.938h-114.69zm107.53 25.776h-100.36v-18.608h100.35v18.608z" fill="#00B388"/>
	<path d="m55.661 160.71h-7.168v-32.94h7.168v13.019h12.809v-13.02h7.168v32.944h-7.168v-13.652h-12.809v13.65zm36.264 0.53c-7.273 0-12.229-4.586-12.229-12.122 0-7.328 4.85-12.389 11.28-12.389 7.01 0 10.488 4.692 10.488 11.703v2.636h-14.97c0.844 3.636 3.69 4.583 6.537 4.583 2.477 0 4.269-0.525 6.482-1.896h0.264v5.429c-1.892 1.38-4.581 2.06-7.848 2.06zm-5.43-14.97h8.539c-0.157-2.424-1.159-4.111-3.953-4.111-2.108 0-3.953 0.9-4.586 4.11zm33.685 0.63l-3.689 13.811h-6.272l-7.169-23.193v-0.263h6.852l3.901 13.862 3.689-13.862h5.587l3.743 13.862 3.953-13.862h6.589v0.263l-7.168 23.193h-6.273l-3.74-13.81zm28.83 14.34c-5.693 0-8.012-2.268-8.012-7.59v-25.88h6.958v25.406c0 1.635 0.632 2.214 2.002 2.214 0.476 0 1.16-0.157 1.582-0.317h0.105v5.746c-0.58 0.21-1.58 0.42-2.63 0.42zm16.81 0c-7.273 0-12.228-4.586-12.228-12.122 0-7.328 4.849-12.389 11.279-12.389 7.01 0 10.489 4.692 10.489 11.703v2.636h-14.97c0.843 3.636 3.689 4.583 6.536 4.583 2.478 0 4.27-0.525 6.484-1.896h0.264v5.429c-1.89 1.38-4.58 2.06-7.85 2.06zm-5.43-14.97h8.539c-0.159-2.424-1.159-4.111-3.953-4.111-2.11 0-3.96 0.9-4.59 4.11zm43.54-9.01h5.167v5.586h-5.167v9.542c0 2.055 0.791 3.004 2.899 3.004 0.58 0 1.318-0.053 2.109-0.317h0.158v5.482c-0.897 0.317-2.267 0.686-4.27 0.686-5.642 0-7.854-2.583-7.854-8.539v-9.857h-8.908v9.542c0 2.055 0.791 3.004 2.899 3.004 0.58 0 1.318-0.053 2.108-0.317h0.159v5.482c-0.896 0.317-2.267 0.686-4.27 0.686-5.641 0-7.854-2.583-7.854-8.539v-9.857h-3.585v-5.586h3.585v-6.43h6.958v6.43h8.908v-6.43h6.958v6.45zm41.26 1.68c0 7.169-4.797 11.07-12.073 11.07h-5.111v10.7h-7.166v-32.94h12.277c7.28 0 12.07 3.9 12.07 11.17zm-12.65 5.01c3.639 0 5.378-2.056 5.378-5.008 0-3.057-1.739-5.112-5.378-5.112h-4.532v10.12h4.53zm28.15 14.44c-1.528 1.844-3.793 2.74-6.219 2.74-4.585 0-8.328-2.791-8.328-7.747 0-4.586 3.743-7.644 9.118-7.644 1.687 0 3.428 0.265 5.219 0.791v-0.421c0-2.531-1.423-3.637-5.165-3.637-2.374 0-4.639 0.685-6.589 1.792h-0.263v-5.587c1.791-1.054 4.954-1.951 8.062-1.951 7.064 0 10.911 3.374 10.911 9.278v14.706h-6.747v-2.32zm-0.21-5.06v-2.003c-1.055-0.579-2.423-0.79-3.848-0.79-2.267 0-3.636 0.843-3.636 2.74 0 1.952 1.369 2.795 3.425 2.795 1.95 0 3.42-1.01 4.06-2.75zm10.48-4.32c0-7.538 5.324-12.282 12.281-12.282 2.479 0 4.797 0.528 6.536 1.792v5.957h-0.264c-1.529-1.16-3.321-1.846-5.376-1.846-3.479 0-6.114 2.373-6.114 6.378s2.636 6.325 6.114 6.325c2.055 0 3.847-0.686 5.376-1.846h0.264v5.956c-1.739 1.267-4.058 1.793-6.536 1.793-6.95 0-12.28-4.69-12.28-12.23zm30.15 1.06v10.646h-6.955v-32.95h6.955v18.764l7.013-9.277h7.905v0.263l-8.433 10.647 8.433 12.282v0.264h-7.958l-6.97-10.63zm30.73 8.32c-1.528 1.844-3.796 2.74-6.221 2.74-4.586 0-8.328-2.791-8.328-7.747 0-4.586 3.742-7.644 9.12-7.644 1.687 0 3.426 0.265 5.218 0.791v-0.421c0-2.531-1.424-3.637-5.165-3.637-2.371 0-4.641 0.685-6.591 1.792h-0.262v-5.587c1.793-1.054 4.954-1.951 8.064-1.951 7.063 0 10.911 3.374 10.911 9.278v14.706h-6.747v-2.32zm-0.21-5.06v-2.003c-1.054-0.579-2.425-0.79-3.849-0.79-2.266 0-3.637 0.843-3.637 2.74 0 1.952 1.371 2.795 3.426 2.795 1.95 0 3.43-1.01 4.06-2.75zm18.66-12.28c1.263-2.583 3.108-4.059 5.693-4.059 0.947 0 1.896 0.21 2.263 0.421v6.642h-0.262c-0.79-0.317-1.739-0.528-3.058-0.528-2.16 0-3.847 1.266-4.428 3.689v13.495h-6.957v-23.457h6.748v3.81zm26.62 17.24c-1.474 1.897-3.794 2.951-6.955 2.951-6.01 0-9.857-5.48-9.857-12.229 0-6.747 3.848-12.282 9.857-12.282 3.057 0 5.27 0.95 6.745 2.689v-11.65h6.959v32.944h-6.749v-2.42zm-0.21-5.54v-7.538c-1.159-1.687-2.686-2.424-4.427-2.424-3.056 0-5.111 2.214-5.111 6.22s2.056 6.167 5.111 6.167c1.74 0 3.27-0.74 4.43-2.43zm-328.21 18.72h20.346v4.005h-15.76v10.066h14.284v3.901h-14.284v10.965h15.76v4.004h-20.346v-32.95zm37.16 9.28c5.218 0 8.117 3.426 8.117 9.065v14.6h-4.374v-14.493c0-3.006-1.528-5.167-4.849-5.167-2.741 0-5.062 1.739-5.851 4.217v15.443h-4.375v-23.19h4.375v3.372c1.369-2.17 3.689-3.85 6.957-3.85zm19.868 0.47h5.955v3.743h-5.955v12.49c0 2.636 1.37 3.532 3.847 3.532 0.685 0 1.423-0.104 1.95-0.315h0.158v3.74c-0.631 0.265-1.528 0.476-2.74 0.476-5.429 0-7.59-2.479-7.59-7.011v-12.912h-4.005v-3.743h4.005v-6.165h4.375v6.16zm20.19 23.67c-6.799 0-11.438-4.535-11.438-11.808 0-7.274 4.322-12.333 10.595-12.333 6.378 0 9.699 4.586 9.699 11.384v2.003h-15.918c0.475 4.692 3.479 6.958 7.643 6.958 2.583 0 4.427-0.579 6.483-2.108h0.159v3.85c-1.88 1.48-4.36 2.06-7.21 2.06zm-6.9-14.34h11.543c-0.157-3.424-1.845-6.059-5.429-6.059-3.32 0-5.48 2.48-6.11 6.06zm25.29-5.75c1.003-2.476 3.216-3.951 5.745-3.951 1.002 0 1.898 0.157 2.267 0.368v4.32h-0.158c-0.632-0.315-1.687-0.473-2.741-0.473-2.372 0-4.374 1.581-5.113 4.217v15.126h-4.375v-23.19h4.375v3.57zm22.88-4.05c6.905 0 10.595 5.64 10.595 12.069 0 6.432-3.689 12.071-10.595 12.071-2.846 0-5.27-1.476-6.482-3.058v11.492h-4.375v-32.101h4.375v2.634c1.21-1.63 3.64-3.1 6.48-3.1zm-0.74 20.18c4.323 0 6.853-3.426 6.853-8.117 0-4.639-2.53-8.116-6.853-8.116-2.372 0-4.585 1.423-5.745 3.688v8.91c1.16 2.27 3.37 3.64 5.74 3.64zm20.88-16.13c1-2.476 3.215-3.951 5.745-3.951 1.001 0 1.897 0.157 2.266 0.368v4.32h-0.158c-0.632-0.315-1.686-0.473-2.741-0.473-2.373 0-4.375 1.581-5.113 4.217v15.126h-4.375v-23.19h4.375v3.57zm14.33-12.96c1.528 0 2.794 1.211 2.794 2.741 0 1.527-1.266 2.74-2.794 2.74-1.476 0-2.793-1.213-2.793-2.74 0-1.53 1.32-2.74 2.79-2.74zm-2.16 9.38h4.375v23.19h-4.375v-23.19zm19.98 9.65c3.32 1.052 7.01 2.423 7.01 6.851 0 4.744-3.899 7.169-8.906 7.169-3.058 0-6.115-0.739-7.854-2.108v-4.164h0.21c1.951 1.793 4.849 2.583 7.59 2.583 2.478 0 4.691-0.95 4.691-2.953 0-2.055-1.844-2.529-5.482-3.741-3.269-1.054-6.905-2.267-6.905-6.642 0-4.481 3.689-7.115 8.381-7.115 2.741 0 5.164 0.579 7.116 1.897v4.217h-0.159c-1.896-1.528-4.111-2.425-6.852-2.425-2.742 0-4.27 1.212-4.27 2.847 0 1.82 1.68 2.34 5.43 3.56zm22.24 14.02c-6.8 0-11.438-4.535-11.438-11.808 0-7.274 4.322-12.333 10.594-12.333 6.379 0 9.699 4.586 9.699 11.384v2.003h-15.92c0.475 4.692 3.48 6.958 7.644 6.958 2.584 0 4.428-0.579 6.484-2.108h0.157v3.85c-1.88 1.48-4.36 2.06-7.21 2.06zm-6.9-14.34h11.541c-0.156-3.424-1.844-6.059-5.427-6.059-3.32 0-5.48 2.48-6.11 6.06z"/>
</svg>
