<?xml version="1.0" encoding="UTF-8" standalone="no"?>
<!-- Created with Inkscape (http://www.inkscape.org/) -->
<svg id="svg2" xmlns:rdf="http://www.w3.org/1999/02/22-rdf-syntax-ns#" xmlns="http://www.w3.org/2000/svg" height="105" width="500" version="1.1" xmlns:cc="http://creativecommons.org/ns#" xmlns:dc="http://purl.org/dc/elements/1.1/" viewBox="0 0 499.99996 105">
 <metadata id="metadata7">
  <rdf:RDF>
   <cc:Work rdf:about="">
    <dc:format>image/svg+xml</dc:format>
    <dc:type rdf:resource="http://purl.org/dc/dcmitype/StillImage"/>
    <dc:title/>
   </cc:Work>
  </rdf:RDF>
 </metadata>
 <g id="layer1" transform="translate(-137.85 -390.54)">
  <g id="g23944" fill="#e60012" transform="matrix(1.5422 0 0 1.5422 148.77 -598.52)">
   <g id="g13605" transform="matrix(0 2.7249 2.7249 0 129.07 656.48)">
    <path id="path13607" d="m0 0c0-2.127 0.986-4.546 2.96-6.024l-0.004 0.001 0.001-0.001-2.647 0.001v-5.073h18.474v5.072h-10.512c-1.892 0-3.903 1.467-3.903 4.183 0 2.099 1.46 4.271 3.903 4.271h10.512v5.073h-11.452c-4.249 0-7.332-3.04-7.332-7.503" fill="#e60012"/>
   </g>
   <g id="g13609" transform="matrix(0 2.7249 2.7249 0 247.76 657.32)">
    <path id="path13611" d="m0 0 12.584-4.586-12.584-4.586v-5.795l18.468 7.601v5.559l-18.468 7.601v-5.794z" fill="#e60012"/>
   </g>
   <g id="g13613" transform="matrix(0 2.7249 2.7249 0 57.567 672.49)">
    <path id="path13615" d="m0 0c-1.16 0.864-1.841 2.24-1.841 3.902 0 1.828 1.044 3.215 2.585 3.932l3.677-8.863c-1.887-0.242-3.363 0.241-4.421 1.029m7.228 9.746c1.58-2.135 1.957-3.355 1.957-5.302 0-1.752-0.544-3.124-1.498-4.091l-5.38 12.969c-2.005-0.283-3.796-1.044-5.158-2.215-1.979-1.704-3.026-4.226-3.026-7.297 0-5.578 4.115-9.784 9.55-9.784 5.576 0 9.549 4.216 9.549 10.343 0 3.433-1.627 6.943-3.528 8.585l-2.466-3.208z" fill="#e60012"/>
   </g>
   <g id="g13617" transform="matrix(0 2.7249 2.7249 0 39.971 694.97)">
    <path id="path13619" d="m0 0v-11.53h-19.341v-5.142h23.999v16.672h-4.658z" fill="#e60012"/>
   </g>
   <g id="g13621" transform="matrix(0 2.7249 2.7249 0 288.37 668.32)">
    <path id="path13623" d="m0 0c0-2.833 2.147-4.89 5.201-4.89 2.916 0 5.201 2.179 5.201 4.958 0 2.834-2.206 4.89-5.201 4.89-2.916 0-5.201-2.178-5.201-4.958m14.749 0c0-5.548-4.133-9.895-9.548-9.895-5.354 0-9.548 4.377-9.548 9.963 0 5.548 4.133 9.894 9.548 9.894 5.353 0 9.548-4.376 9.548-9.962" fill="#e60012"/>
   </g>
   <g id="g13625" transform="matrix(0 2.7249 2.7249 0 181.95 668.32)">
    <path id="path13627" d="m0 0c0-2.833 2.147-4.889 5.201-4.889 2.916 0 5.201 2.178 5.201 4.958 0 2.833-2.206 4.889-5.201 4.889-2.916 0-5.201-2.178-5.201-4.958m14.749 0c0-5.548-4.133-9.894-9.548-9.894-5.354 0-9.548 4.376-9.548 9.963 0 5.547 4.133 9.894 9.548 9.894 5.353 0 9.548-4.377 9.548-9.963" fill="#e60012"/>
   </g>
  </g>
 </g>
</svg>
